<svg width="326" height="106" viewBox="0 0 326 106" fill="none" xmlns="http://www.w3.org/2000/svg">
<path d="M162.159 82V23.2835H188.438C200.427 23.2835 206.422 28.7993 206.422 39.8309C206.422 51.7932 198.224 59.0335 181.827 61.5519L180.267 51.8616C190.121 50.0823 195.048 46.1816 195.048 40.1594C195.048 35.2869 192.612 32.8506 187.74 32.8506H173.04V82H162.159ZM221.45 60.279C221.45 69.2849 224.941 73.7879 231.921 73.7879C238.901 73.7879 242.391 69.2849 242.391 60.279C242.391 51.4921 238.901 47.0986 231.921 47.0986C224.941 47.0986 221.45 51.4921 221.45 60.279ZM210.569 60.4433C210.569 45.99 217.686 38.7633 231.921 38.7633C246.155 38.7633 253.272 45.99 253.272 60.4433C253.272 74.8692 246.155 82.0821 231.921 82.0821C217.741 82.0821 210.624 74.8692 210.569 60.4433ZM261.484 79.947V70.9137C266.275 72.8298 271.804 73.7879 278.073 73.7879C282.754 73.7879 285.094 72.2824 285.094 69.2713C285.094 66.397 283.52 64.9599 280.372 64.9599H272.571C263.811 64.9599 259.431 60.6486 259.431 52.0259C259.431 42.9926 265.823 38.4759 278.607 38.4759C284.027 38.4759 289.132 39.2971 293.922 40.9395V49.9728C289.132 48.0567 283.931 47.0986 278.319 47.0986C272.434 47.0986 269.491 48.6042 269.491 51.6153C269.491 54.4895 271.202 55.9266 274.624 55.9266H281.604C291.185 55.9266 295.975 60.238 295.975 68.8607C295.975 77.894 289.871 82.4106 277.662 82.4106C271.667 82.4106 266.275 81.5894 261.484 79.947ZM302.996 31.9062H311.044L312.687 38.8865H323.527V47.5092H313.877V67.3414C313.877 71.3653 315.616 73.3773 319.092 73.3773H323.527V82H313.836C306.61 82 302.996 78.1266 302.996 70.3799V31.9062Z" fill="url(#paint0_linear_26_24)"/>
<line x1="132.051" y1="22" x2="132.051" y2="89.2734" stroke="white" stroke-opacity="0.55" stroke-width="2.1023"/>
<mask id="mask0_26_24" style="mask-type:alpha" maskUnits="userSpaceOnUse" x="0" y="15" width="106" height="76">
<path d="M29.3465 90.1089C19.7127 90.1089 0.439941 84.3276 0.439941 61.2023C0.439941 38.0771 24.0157 22.6851 33.6262 18.6307C43.2367 14.5762 45.6393 14.4264 55.6252 16.5285C65.6111 18.6307 81.9039 34.9237 81.9039 42.8073C60.055 47.6125 71.017 77.7954 105.555 66.4581C105.555 85.3787 89.7875 90.1089 81.9039 90.1089H55.6252H29.3465Z" fill="url(#paint1_linear_26_24)"/>
</mask>
<g mask="url(#mask0_26_24)">
<path d="M23.2124 89.4461C25.4641 89.9122 27.5693 90.1089 29.3465 90.1089H81.9039C89.7875 90.1089 105.555 85.3787 105.555 66.4581C71.017 77.7954 60.055 47.6125 81.9039 42.8073C81.9039 34.9237 65.6111 18.6307 55.6252 16.5285C45.6393 14.4264 43.2367 14.5762 33.6262 18.6307C24.0157 22.6851 0.439941 38.0771 0.439941 61.2023C0.439941 72.9995 5.4556 80.283 11.6485 84.5879L25.4204 75.2476C27.8227 73.6183 31.0909 74.245 32.7201 76.6472C34.3494 79.0495 33.7228 82.3177 31.3205 83.947L23.2124 89.4461Z" fill="white"/>
</g>
<defs>
<linearGradient id="paint0_linear_26_24" x1="322.49" y1="32.2505" x2="259.287" y2="145.276" gradientUnits="userSpaceOnUse">
<stop offset="0.613155" stop-color="white"/>
<stop offset="1" stop-color="white" stop-opacity="0"/>
</linearGradient>
<linearGradient id="paint1_linear_26_24" x1="-5.71678" y1="114.285" x2="71.6176" y2="27.1901" gradientUnits="userSpaceOnUse">
<stop offset="0.0238957" stop-color="#0095FF" stop-opacity="0"/>
<stop offset="0.884036" stop-color="#57BBFF"/>
</linearGradient>
</defs>
</svg>
